HIERARCHY
ROOT Hips
{
	OFFSET -0.001795 -0.223333 0.028219
	CHANNELS 6 Xposition Yposition Zposition Zrotation Yrotation Xrotation 
	JOINT LeftUpLeg
	{
		OFFSET 0.069520 -0.091406 -0.006815
		CHANNELS 3 Zrotation Yrotation Xrotation
		JOINT LeftLeg
		{
			OFFSET 0.034277 -0.375199 -0.004496
			CHANNELS 3 Zrotation Yrotation Xrotation
			JOINT LeftFoot
			{
				OFFSET -0.013596 -0.397961 -0.043693
				CHANNELS 3 Zrotation Yrotation Xrotation
				JOINT LeftToe
				{
					OFFSET 0.026358 -0.055791 0.119288
					CHANNELS 3 Zrotation Yrotation Xrotation
					End Site
					{
						OFFSET 0.000000 0.000000 0.000000
					}
				}
			}
		}
	}
	JOINT RightUpLeg
	{
		OFFSET -0.067670 -0.090522 -0.004320
		CHANNELS 3 Zrotation Yrotation Xrotation
		JOINT RightLeg
		{
			OFFSET -0.038290 -0.382569 -0.008850
			CHANNELS 3 Zrotation Yrotation Xrotation
			JOINT RightFoot
			{
				OFFSET 0.015774 -0.398415 -0.042312
				CHANNELS 3 Zrotation Yrotation Xrotation
				JOINT RightToe
				{
					OFFSET -0.025372 -0.048144 0.123348
					CHANNELS 3 Zrotation Yrotation Xrotation
					End Site
					{
						OFFSET 0.000000 0.000000 0.000000
					}
				}
			}
		}
	}
	JOINT Spine
	{
		OFFSET -0.002533 0.108963 -0.026696
		CHANNELS 3 Zrotation Yrotation Xrotation
		JOINT Spine1
		{
			OFFSET 0.005487 0.135180 0.001092
			CHANNELS 3 Zrotation Yrotation Xrotation
			JOINT Spine2
			{
				OFFSET 0.001457 0.052922 0.025425
				CHANNELS 3 Zrotation Yrotation Xrotation
				JOINT Neck
				{
					OFFSET -0.002778 0.213870 -0.042857
					CHANNELS 3 Zrotation Yrotation Xrotation
					JOINT Head
					{
						OFFSET 0.005152 0.064970 0.051349
						CHANNELS 3 Zrotation Yrotation Xrotation
						End Site
						{
							OFFSET 0.000000 0.000000 0.000000
						}
					}
				}
				JOINT LeftShoulder
				{
					OFFSET 0.078845 0.121749 -0.034090
					CHANNELS 3 Zrotation Yrotation Xrotation
					JOINT LeftArm
					{
						OFFSET 0.090977 0.030469 -0.008868
						CHANNELS 3 Zrotation Yrotation Xrotation
						JOINT LeftForeArm
						{
							OFFSET 0.259612 -0.012772 -0.027456
							CHANNELS 3 Zrotation Yrotation Xrotation
							JOINT LeftHand
							{
								OFFSET 0.249234 0.008986 -0.001171
								CHANNELS 3 Zrotation Yrotation Xrotation
								End Site
								{
									OFFSET 0.000000 0.000000 0.000000
								}
							}
						}
					}
				}
				JOINT RightShoulder
				{
					OFFSET -0.081759 0.118833 -0.038615
					CHANNELS 3 Zrotation Yrotation Xrotation
					JOINT RightArm
					{
						OFFSET -0.096012 0.032551 -0.009143
						CHANNELS 3 Zrotation Yrotation Xrotation
						JOINT RightForeArm
						{
							OFFSET -0.253742 -0.013329 -0.021401
							CHANNELS 3 Zrotation Yrotation Xrotation
							JOINT RightHand
							{
								OFFSET -0.255298 0.007772 -0.005559
								CHANNELS 3 Zrotation Yrotation Xrotation
								End Site
								{
									OFFSET 0.000000 0.000000 0.000000
								}
							}
						}
					}
				}
			}
		}
	}
}
MOTION
Frames: 10
Frame Time: 0.050000
-0.050263 0.946907 -0.013672 -7.512270 -20.584708 9.917916 15.522015 2.522449 -21.471153 -4.332318 1.288578 13.415626 -2.788287 -2.856166 9.614144 0.000000 0.000000 0.000000 -1.487483 1.145885 -11.050829 2.551590 0.132923 7.360776 -10.942939 -25.728443 15.616252 0.000000 0.000000 0.000000 -14.682989 4.589470 25.392719 0.125744 0.016398 -17.862684 -6.147000 1.862587 25.513577 -6.450967 4.893100 -9.142926 0.000000 0.000000 0.000000 -21.968273 -20.798013 13.551046 -27.644555 -52.281279 5.975152 -4.534279 -32.499172 2.949380 0.000000 0.000000 0.000000 -8.557155 11.673865 4.123060 31.690969 11.939459 -1.884806 113.846142 66.455444 88.437747 0.000000 0.000000 0.000000 
-0.049885 0.946681 -0.013808 -7.516409 -20.379488 9.818852 15.475036 2.479937 -21.406383 -4.290449 1.264005 13.351720 -2.741700 -2.746638 9.675052 0.000000 0.000000 0.000000 -1.478984 1.139331 -11.003207 2.571693 0.131017 7.420073 -10.914270 -25.667985 15.383196 0.000000 0.000000 0.000000 -14.812303 4.596200 25.313777 0.393896 -0.060766 -17.639808 -6.078701 2.127126 25.368150 -6.288550 4.815274 -8.970052 0.000000 0.000000 0.000000 -21.701997 -20.984796 13.461320 -28.403770 -52.369141 6.343186 -4.551501 -32.603824 2.966308 0.000000 0.000000 0.000000 -8.632721 11.772819 4.123432 31.571211 11.719845 -1.901075 115.607808 66.754756 91.003640 0.000000 0.000000 0.000000 
-0.049662 0.946827 -0.014142 -7.464198 -19.870011 9.856769 15.500623 2.445835 -21.506375 -4.356932 1.258732 13.290192 -2.806204 -2.812380 9.699169 0.000000 0.000000 0.000000 -1.341452 1.167096 -11.225081 2.401063 0.154104 7.591866 -10.835163 -25.566687 15.458665 0.000000 0.000000 0.000000 -14.850819 4.587594 25.426057 0.626097 -0.106422 -17.854722 -5.986699 2.080061 25.597686 -6.285182 4.831629 -8.976725 0.000000 0.000000 0.000000 -21.510800 -20.895444 13.313983 -29.242048 -52.744707 6.781423 -4.229383 -32.589062 2.887560 0.000000 0.000000 0.000000 -8.678399 11.625609 4.069530 31.398628 11.727020 -1.897240 116.916144 67.019666 92.916915 0.000000 0.000000 0.000000 
-0.049672 0.946760 -0.014641 -7.515491 -19.362026 10.020084 15.626614 2.453608 -21.767603 -4.428678 1.251197 13.188787 -2.849619 -2.811792 9.828543 0.000000 0.000000 0.000000 -1.276364 1.169663 -11.245653 2.501042 0.120774 7.287084 -10.677818 -25.325030 15.235803 0.000000 0.000000 0.000000 -14.873219 4.526105 25.255176 0.801869 -0.151018 -17.620787 -5.884364 2.099602 25.543439 -6.268689 4.812344 -9.387622 0.000000 0.000000 0.000000 -21.066942 -20.893005 13.116404 -30.140066 -53.103614 7.296029 -3.840872 -32.639903 2.791933 0.000000 0.000000 0.000000 -8.922440 11.634898 4.054542 31.341813 11.797899 -1.864504 118.563880 67.456169 95.501366 0.000000 0.000000 0.000000 
-0.049890 0.946760 -0.015234 -7.455744 -18.976090 10.140521 15.520905 2.409447 -22.009428 -4.344538 1.215536 13.230841 -3.018739 -3.158482 9.535720 0.000000 0.000000 0.000000 -1.266231 1.183539 -11.366826 2.554330 0.105974 7.205779 -10.694076 -25.344940 15.245088 0.000000 0.000000 0.000000 -15.020041 4.573332 25.388826 0.918464 -0.167606 -17.784794 -5.793165 2.277334 25.590197 -6.123238 4.749128 -9.213271 0.000000 0.000000 0.000000 -20.987532 -20.930348 13.006133 -30.589517 -53.291006 7.538091 -3.822034 -32.734556 2.800787 0.000000 0.000000 0.000000 -9.026792 11.640711 4.027372 31.402863 12.054730 -1.805906 119.497282 67.702944 97.200685 0.000000 0.000000 0.000000 
-0.050184 0.946648 -0.015812 -7.439266 -18.647731 10.096786 15.629096 2.399527 -22.004443 -4.488513 1.243057 13.245125 -3.035303 -3.136939 9.608920 0.000000 0.000000 0.000000 -1.257058 1.167771 -11.244533 2.600801 0.084183 6.950176 -10.669964 -25.288767 15.167863 0.000000 0.000000 0.000000 -15.237458 4.646539 25.550862 1.034036 -0.190980 -17.775808 -5.645326 2.601289 25.746703 -5.901962 4.616961 -9.461347 0.000000 0.000000 0.000000 -20.536266 -20.783252 12.664145 -31.352017 -53.929290 8.068675 -3.647873 -32.441961 2.726292 0.000000 0.000000 0.000000 -9.061590 11.560047 3.966220 31.324594 12.808147 -1.641535 120.161717 68.204943 98.972291 0.000000 0.000000 0.000000 
-0.050381 0.946612 -0.016177 -7.418931 -18.293489 10.084441 15.543701 2.349970 -22.104141 -4.314783 1.183177 13.272003 -3.193951 -3.439174 9.426904 0.000000 0.000000 0.000000 -1.158646 1.167401 -11.236404 2.503684 0.081888 6.747074 -10.694455 -25.318001 15.276882 0.000000 0.000000 0.000000 -15.300214 4.656173 25.657131 0.968060 -0.162254 -17.835401 -5.528657 2.768708 25.744554 -5.761820 4.549847 -9.376439 0.000000 0.000000 0.000000 -20.439584 -20.591072 12.426288 -31.932867 -53.958231 8.324531 -3.864759 -32.586225 2.810367 0.000000 0.000000 0.000000 -8.956160 11.757947 3.989869 31.136746 13.493340 -1.480761 120.218036 68.390362 99.551547 0.000000 0.000000 0.000000 
-0.050447 0.946565 -0.016246 -7.368364 -18.109538 10.145615 15.542329 2.324327 -22.094738 -4.394586 1.194781 13.217694 -3.356292 -3.695616 9.456525 0.000000 0.000000 0.000000 -1.216592 1.166473 -11.242757 2.549443 0.074140 6.737547 -10.797912 -25.460385 15.357371 0.000000 0.000000 0.000000 -15.463315 4.693490 25.623723 0.913000 -0.136419 -17.968603 -5.373048 3.212098 25.943369 -5.591630 4.463871 -9.649811 0.000000 0.000000 0.000000 -20.048823 -20.521988 12.152684 -32.867881 -54.218337 8.809251 -3.649364 -32.546370 2.750491 0.000000 0.000000 0.000000 -8.922928 11.610380 3.913887 31.354761 14.037994 -1.370282 119.326843 68.533552 99.140654 0.000000 0.000000 0.000000 
-0.050427 0.946716 -0.016040 -7.288140 -17.797120 10.051761 15.358430 2.219502 -21.879503 -4.121046 1.092321 12.936212 -3.478700 -3.934649 9.321525 0.000000 0.000000 0.000000 -1.276740 1.154952 -11.162438 2.460416 0.080286 6.724392 -10.761669 -25.399828 15.497092 0.000000 0.000000 0.000000 -15.544781 4.702440 25.703086 0.872436 -0.113908 -18.107283 -5.292067 3.335528 26.019603 -5.656534 4.542110 -9.696566 0.000000 0.000000 0.000000 -20.018548 -20.335173 11.963375 -33.765171 -54.018714 9.121173 -3.407026 -32.792611 2.715142 0.000000 0.000000 0.000000 -8.983713 11.782871 3.934487 31.462833 14.499840 -1.267105 118.643259 68.784296 98.876519 0.000000 0.000000 0.000000 
-0.050452 0.946786 -0.015677 -7.208285 -17.593583 9.960413 15.233784 2.133930 -21.609046 -4.036483 1.043609 12.608679 -3.657466 -4.211002 9.388112 0.000000 0.000000 0.000000 -1.518258 1.153279 -11.193156 2.738022 0.048855 6.807024 -10.790523 -25.441081 15.739382 0.000000 0.000000 0.000000 -15.651997 4.695041 25.595746 0.935127 -0.122080 -18.228993 -5.297478 3.728315 26.163030 -5.695432 4.617692 -9.954903 0.000000 0.000000 0.000000 -19.931689 -20.219096 11.743760 -34.678105 -53.820268 9.430539 -3.519147 -33.045576 2.778978 0.000000 0.000000 0.000000 -9.163138 11.862062 3.912136 31.834153 14.451789 -1.268389 118.129487 69.069279 98.987051 0.000000 0.000000 0.000000 
